<?xml version="1.0" encoding="UTF-8" standalone="no"?>
<!-- Created with Inkscape (http://www.inkscape.org/) -->

<svg
   version="1.1"
   id="svg686"
   width="183.04134"
   height="71.976402"
   viewBox="0 0 183.04134 71.976402"
   xmlns="http://www.w3.org/2000/svg"
   xmlns:svg="http://www.w3.org/2000/svg">
  <defs
     id="defs690">
    <clipPath
       clipPathUnits="userSpaceOnUse"
       id="clipPath702">
      <path
         d="M 0,53.982 H 137.281 V 0 H 0 Z"
         id="path700" />
    </clipPath>
  </defs>
  <g
     id="g694"
     transform="matrix(1.3333333,0,0,-1.3333333,0,71.9764)">
    <g
       id="g696">
      <g
         id="g698"
         clip-path="url(#clipPath702)">
        <g
           id="g704"
           transform="translate(1.3896,52.7454)">
          <path
             d="m 0,0 h 5.301 v -21.273 h 0.07 c 1.534,2.185 3.417,3.836 5.649,4.952 2.232,1.116 4.859,1.674 7.882,1.674 2.697,0 5.022,-0.558 6.975,-1.674 1.953,-1.116 3.441,-2.709 4.464,-4.778 1.022,-2.07 1.534,-4.546 1.534,-7.428 v -22.738 h -5.301 v 22.25 c 0,2.975 -0.814,5.346 -2.441,7.114 -1.628,1.767 -3.86,2.65 -6.696,2.65 -2.325,0 -4.418,-0.512 -6.277,-1.534 C 9.3,-21.808 7.858,-23.25 6.835,-25.11 5.812,-26.97 5.301,-29.04 5.301,-31.317 V -51.265 H 0 Z"
             style="fill:#000000;fill-opacity:1;fill-rule:nonzero;stroke:none"
             id="path706" />
        </g>
        <g
           id="g708"
           transform="translate(68.8361,21.986)">
          <path
             d="m 0,0 c -0.233,2.372 -0.872,4.405 -1.918,6.103 -1.046,1.697 -2.406,2.988 -4.08,3.871 -1.674,0.883 -3.582,1.325 -5.72,1.325 -2.139,0 -4.092,-0.477 -5.859,-1.429 C -19.344,8.916 -20.785,7.579 -21.901,5.859 -23.017,4.138 -23.762,2.185 -24.133,0 Z m -20.192,-19.425 c -2.954,1.65 -5.266,3.964 -6.94,6.94 -1.674,2.976 -2.511,6.301 -2.511,9.974 0,3.533 0.767,6.719 2.302,9.556 1.534,2.835 3.661,5.056 6.381,6.661 2.721,1.604 5.825,2.406 9.312,2.406 3.394,0 6.382,-0.791 8.963,-2.371 C -0.104,12.159 1.906,9.94 3.348,7.079 4.789,4.22 5.533,1 5.58,-2.581 v -1.011 c 0,-0.348 -0.024,-0.709 -0.07,-1.081 h -29.713 c 0.279,-2.465 1.057,-4.627 2.337,-6.487 1.278,-1.86 2.929,-3.313 4.952,-4.359 2.023,-1.046 4.29,-1.569 6.8,-1.569 2.697,0 5.15,0.627 7.359,1.883 2.208,1.255 3.801,2.86 4.778,4.813 l 4.533,-1.884 c -0.744,-1.907 -1.942,-3.581 -3.591,-5.022 -1.652,-1.441 -3.617,-2.569 -5.894,-3.383 -2.279,-0.812 -4.698,-1.22 -7.254,-1.22 -3.721,0 -7.057,0.826 -10.009,2.476"
             style="fill:#000000;fill-opacity:1;fill-rule:nonzero;stroke:none"
             id="path710" />
        </g>
        <g
           id="g712"
           transform="translate(101.6581,5.8007)">
          <path
             d="m 0,0 -3.827,16.968 c -1.227,5.559 -2.599,8.519 -7.075,8.519 -3.466,0 -5.632,-2.31 -5.632,-5.632 V -4.477 h -4.188 V 25.56 c 0,4.476 2.527,6.787 5.993,6.787 3.393,0 5.415,-2.094 8.159,-6.354 L 2.455,12.202 v 13.285 c 0,4.188 2.527,6.86 6.209,6.86 3.683,0 5.849,-2.527 8.808,-6.715 L 33.501,2.961 c 1.011,-1.373 1.373,-2.672 1.373,-3.828 0,-2.454 -2.022,-4.259 -4.838,-4.259 -3.466,0 -5.343,2.093 -6.209,5.993 l -3.322,15.451 c -1.227,5.776 -3.249,9.097 -7.725,9.097 -4.116,0 -6.065,-2.455 -6.065,-5.992 0,-2.889 3.681,-17.69 3.681,-19.784 0,-3.104 -2.31,-4.838 -4.62,-4.838 C 3.105,-5.199 0.794,-3.682 0,0"
             style="fill:#000000;fill-opacity:1;fill-rule:nonzero;stroke:none"
             id="path714" />
        </g>
      </g>
    </g>
  </g>
</svg>
